<svg xmlns="http://www.w3.org/2000/svg" viewBox="0 0 100 100">
  <path fill="#FFFFFF" d="M95,45.4C95,20.4,74.8,0.1,50,0.1S5,20.4,5,45.4C5,58,10.2,69.5,18.7,77.7l-9.1,16.2L16,98.6l10.8-19.1c6.5,4.3,14.3,6.8,22.7,6.8c11.9,0,22.7-4.9,30.5-12.8L90.5,88l5.8-5L86,70.9C91.6,63.4,95,54.2,95,45.4z M50,81.4c-19.8,0-35.9-16.1-35.9-35.9S30.2,9.6,50,9.6s35.9,16.1,35.9,35.9S69.8,81.4,50,81.4z"/>
  <path fill="#FFFFFF" d="M60.7,45.4c0,5.9-4.8,10.7-10.7,10.7s-10.7-4.8-10.7-10.7s4.8-10.7,10.7-10.7S60.7,39.5,60.7,45.4z"/>
</svg>
