<svg xmlns="http://www.w3.org/2000/svg" viewBox="0 0 220 48" fill="none" height="48">
  <!-- Coinbase circle with C cutout -->
  <circle cx="24" cy="24" r="22" fill="#ffffff"/>
  <path d="M24 10 A14 14 0 1 0 24 38 A14 14 0 0 1 24 10Z" fill="none"/>
  <path d="M18 17 A10 10 0 1 1 18 31 L13 31 A14 14 0 1 0 13 17Z" fill="#000000" opacity="0"/>
  <!-- Simpler: circle with cutout arc for 'C' shape -->
  <path d="M24 4 A20 20 0 1 1 24 44 A20 20 0 0 1 4 24 A20 20 0 0 1 24 4Z M24 13 A11 11 0 0 0 13 24 A11 11 0 0 0 24 35 L24 35 A11 11 0 0 1 13 24 A11 11 0 0 1 24 13Z" fill="none"/>
  <circle cx="24" cy="24" r="22" fill="#ffffff"/>
  <path d="M30,15 A13,13 0 1,0 30,33 L24,33 A7,7 0 1,1 24,15 Z" fill="#000000" transform="translate(0,0)"/>
  <!-- COINBASE text -->
  <text x="56" y="32" font-family="Arial, sans-serif" font-weight="700" font-size="20" fill="#ffffff" letter-spacing="0.5">COINBASE</text>
</svg>
